# xmcd
#
# Track frame offsets:
#	182
#	11575
#	35770
#	51445
#	67577
#	82972
#	100572
#	115905
#	136490
#	152945
#	177542
#	196855
#	217485
#	223370
#
# Disc length: 3083 seconds
#
# Revision: 0
# Processed by: cddbd v1.4PL0 Copyright (c) Steve Scherf et al.
# Submitted via: EasyCDDAExtractor 4.6.0.1
#
DISCID=d00c090e
DTITLE=Louis Armstrong - Happy collection
DYEAR=1900
DGENRE=Blues
TTITLE0=Hello Dolly
TTITLE1=La chica de Ipanema
TTITLE2=Mack the knife
TTITLE3=Amo a París
TTITLE4=Por favor no hables de mi cuando haya partido
TTITLE5=Indiana
TTITLE6=Blueberry hill
TTITLE7=Viejo hogar de Kentucky
TTITLE8=Muskrat Rumble
TTITLE9=That´s my desire
TTITLE10=Ole miss
TTITLE11=A kiss to build a dremon
TTITLE12=When it´s sleepy time down south
TTITLE13=St. James infirmary
EXTD=
EXTT0=
EXTT1=
EXTT2=
EXTT3=
EXTT4=
EXTT5=
EXTT6=
EXTT7=
EXTT8=
EXTT9=
EXTT10=
EXTT11=
EXTT12=
EXTT13=
PLAYORDER=
